# Blender v2.74 (sub 0) OBJ File: 'scene1.blend'
# www.blender.org
mtllib energy.mtl
o Energy_(Unit)_Circle.003
v 0.000010 48.342056 -0.000004
v 12.511722 46.694878 -0.000004
v 6.309760 47.928505 -0.000004
v 0.000000 64.000000 -0.000005
v 16.564257 61.819298 -0.000005
v 8.353498 63.452496 -0.000005
v 6.309760 47.928505 6.737669
v 12.511722 46.694878 6.737670
v 0.000010 48.342056 6.737669
v 8.353498 63.452496 6.737669
v 16.564257 61.819298 6.737669
v 0.000000 64.000000 6.737669
vn 0.000000 -0.000000 -1.000000
vn -0.000000 0.000000 1.000000
vn 0.965900 -0.258800 0.000000
vn -1.000000 -0.000000 0.000000
vn 0.065400 0.997900 0.000000
vn 0.195100 0.980800 0.000000
vn -0.065400 -0.997900 0.000000
vn -0.195100 -0.980800 0.000000
usemtl Energy
s off
f 6//1 5//1 2//1
f 4//1 6//1 3//1
f 8//2 11//2 10//2
f 7//2 10//2 12//2
f 5//3 11//3 8//3
f 1//4 9//4 12//4
f 4//5 12//5 10//5
f 6//6 10//6 11//6
f 3//7 7//7 9//7
f 2//8 8//8 7//8
f 3//1 6//1 2//1
f 1//1 4//1 3//1
f 7//2 8//2 10//2
f 9//2 7//2 12//2
f 2//3 5//3 8//3
f 4//4 1//4 12//4
f 6//5 4//5 10//5
f 5//6 6//6 11//6
f 1//7 3//7 9//7
f 3//8 2//8 7//8
