# Blender v2.74 (sub 0) OBJ File: 'scene1.blend'
# www.blender.org
mtllib gameover.mtl
o GameOver_Cube.002
v 28.488754 0.504215 -0.000001
v 85.349991 -56.400558 -0.000006
v 56.985821 -85.032234 -0.000006
v -27.925694 0.128790 -0.000001
v 56.555164 84.724518 0.000005
v 84.859695 56.459087 0.000004
v 0.245356 -28.229378 -0.000005
v -84.431702 -56.183250 -0.000014
v -84.190285 56.739769 -0.000007
v -56.408405 84.230400 -0.000007
v -0.073598 28.038322 0.000000
v -55.943089 -84.703056 -0.000015
v 28.488754 0.504215 9.040030
v 85.349991 -56.400558 9.040026
v 56.985821 -85.032234 9.040025
v -27.925694 0.128790 9.040030
v 56.555164 84.724518 9.040036
v 84.859695 56.459087 9.040035
v 0.245356 -28.229378 9.040027
v -84.431702 -56.183250 9.040017
v -84.190285 56.739769 9.040025
v -56.408405 84.230400 9.040025
v -0.073598 28.038322 9.040031
v -55.943089 -84.703056 9.040016
vn 0.707500 0.706700 0.000000
vn -0.705900 0.708300 0.000000
vn 0.706200 0.708000 0.000000
vn -0.707500 0.706700 0.000000
vn -0.703400 0.710800 0.000000
vn 0.708900 -0.705300 0.000000
vn -0.707500 -0.706700 0.000000
vn 0.704500 -0.709700 0.000000
vn 0.706600 0.707600 0.000000
vn -0.709300 -0.704900 0.000000
vn 0.710400 -0.703800 0.000000
vn 0.707400 0.706800 0.000000
vn 0.000000 -0.000000 1.000000
vn -0.000000 0.000000 -1.000000
usemtl GameOver
s off
f 3//1 7//1 19//1
f 8//2 20//2 16//2
f 10//3 22//3 23//3
f 11//4 23//4 17//4
f 9//5 21//5 22//5
f 12//6 7//6 19//6
f 12//7 24//7 20//7
f 6//8 18//8 13//8
f 5//9 17//9 18//9
f 9//10 4//10 16//10
f 2//11 14//11 15//11
f 1//12 13//12 14//12
f 19//13 23//13 16//13
f 7//14 4//14 11//14
f 15//1 3//1 19//1
f 4//2 8//2 16//2
f 11//3 10//3 23//3
f 5//4 11//4 17//4
f 10//5 9//5 22//5
f 24//6 12//6 19//6
f 8//7 12//7 20//7
f 1//8 6//8 13//8
f 6//9 5//9 18//9
f 21//10 9//10 16//10
f 3//11 2//11 15//11
f 2//12 1//12 14//12
f 19//13 15//13 14//13
f 20//13 24//13 19//13
f 22//13 21//13 16//13
f 16//13 20//13 19//13
f 19//13 14//13 13//13
f 13//13 18//13 17//13
f 23//13 22//13 16//13
f 13//13 17//13 23//13
f 23//13 19//13 13//13
f 5//14 6//14 1//14
f 7//14 2//14 3//14
f 7//14 12//14 8//14
f 1//14 2//14 7//14
f 11//14 5//14 1//14
f 4//14 10//14 11//14
f 7//14 8//14 4//14
f 4//14 9//14 10//14
f 11//14 1//14 7//14
