# Blender v2.74 (sub 0) OBJ File: 'scene1.blend'
# www.blender.org
mtllib player.mtl
o Player_Cone.001
v 0.000000 0.038095 0.000000
v 0.000000 0.038095 -1.000000
v 0.382683 0.038095 -0.923880
v 0.707107 0.038095 -0.707107
v 0.923880 0.038095 -0.382683
v 1.000000 0.038095 0.000000
v 0.923880 0.038095 0.382684
v 0.707107 0.038095 0.707107
v 0.000000 2.038095 0.000000
v 0.382683 0.038095 0.923880
v 0.000000 0.038095 1.000000
v -0.382683 0.038095 0.923880
v -0.707107 0.038095 0.707107
v -0.923880 0.038095 0.382684
v -1.000000 0.038095 -0.000000
v -0.923879 0.038095 -0.382684
v -0.707107 0.038095 -0.707107
v -0.382683 0.038095 -0.923880
vn 0.000000 -1.000000 0.000000
vn 0.175200 0.440300 -0.880600
vn 0.498800 0.440300 -0.746500
vn 0.746500 0.440300 -0.498800
vn 0.880600 0.440300 -0.175200
vn 0.880600 0.440300 0.175200
vn 0.746500 0.440300 0.498800
vn 0.498800 0.440300 0.746500
vn 0.175200 0.440300 0.880600
vn -0.175200 0.440300 0.880600
vn -0.498800 0.440300 0.746500
vn -0.746500 0.440300 0.498800
vn -0.880600 0.440300 0.175200
vn -0.880600 0.440300 -0.175200
vn -0.746500 0.440300 -0.498800
vn -0.498800 0.440300 -0.746500
vn -0.175200 0.440300 -0.880600
g Player_Cone.001_None
usemtl None
s off
f 1//1 2//1 3//1
f 1//1 3//1 4//1
f 1//1 4//1 5//1
f 1//1 5//1 6//1
f 1//1 6//1 7//1
f 1//1 7//1 8//1
f 1//1 8//1 10//1
f 1//1 10//1 11//1
f 1//1 11//1 12//1
f 1//1 12//1 13//1
f 1//1 13//1 14//1
f 1//1 14//1 15//1
f 1//1 15//1 16//1
f 1//1 16//1 17//1
f 1//1 17//1 18//1
f 1//1 18//1 2//1
f 2//2 9//2 3//2
f 3//3 9//3 4//3
f 4//4 9//4 5//4
f 5//5 9//5 6//5
f 6//6 9//6 7//6
f 7//7 9//7 8//7
f 8//8 9//8 10//8
f 10//9 9//9 11//9
f 11//10 9//10 12//10
f 12//11 9//11 13//11
f 13//12 9//12 14//12
f 14//13 9//13 15//13
f 15//14 9//14 16//14
f 16//15 9//15 17//15
f 17//16 9//16 18//16
f 18//17 9//17 2//17
