# Blender v2.74 (sub 0) OBJ File: 'scene1.blend'
# www.blender.org
mtllib torchIcon.mtl
o TorchIcon_Circle
v 22.627419 33.159908 -0.000002
v -22.627415 33.159912 0.000000
v -9.311335 25.719410 0.000002
v 9.311336 25.719408 0.000001
v -7.914456 23.731350 0.000002
v 7.914455 23.731350 0.000001
v -4.399089 20.387169 0.000001
v 4.399086 20.387169 0.000001
v -3.513771 11.799456 0.000001
v 3.513768 11.799454 0.000001
v -2.731246 -2.996900 0.000001
v 2.731242 -2.996901 0.000001
v -2.266884 -18.883514 0.000001
v 2.266881 -18.883514 0.000001
v -6.324748 -23.166668 0.000002
v 6.324744 -23.166672 0.000001
v 4.135612 18.341000 0.000001
v -4.135615 18.341002 0.000001
v 2.548692 -19.960171 0.000001
v -2.548696 -19.960171 0.000001
v 22.627419 33.159908 6.588445
v -22.627415 33.159912 6.588447
v -9.311335 25.719410 6.588449
v 9.311336 25.719408 6.588448
v -7.914456 23.731350 6.588449
v 7.914455 23.731350 6.588448
v -4.399089 20.387169 6.588449
v 4.399086 20.387169 6.588448
v -3.513771 11.799456 6.588449
v 3.513768 11.799454 6.588448
v -2.731246 -2.996900 6.588449
v 2.731242 -2.996901 6.588448
v -2.266884 -18.883514 6.588449
v 2.266881 -18.883514 6.588448
v -6.324748 -23.166668 6.588449
v 6.324744 -23.166672 6.588448
v 4.135612 18.341000 6.588448
v -4.135615 18.341002 6.588449
v 2.548692 -19.960171 6.588448
v -2.548696 -19.960171 6.588449
vn -0.000000 -0.000000 -1.000000
vn -0.000000 0.000000 1.000000
vn -0.967400 0.253200 0.000000
vn -0.999600 -0.029200 0.000000
vn 0.487800 -0.873000 0.000000
vn -0.487800 -0.873000 0.000000
vn 0.998600 -0.052800 0.000000
vn 0.647300 0.762300 0.000000
vn -0.995500 -0.094600 0.000000
vn -0.647300 0.762300 0.000000
vn 0.689200 -0.724500 0.000000
vn -0.000000 -1.000000 0.000000
vn 0.000000 1.000000 0.000000
vn 0.999600 -0.029200 0.000000
vn -0.998600 -0.052800 0.000000
vn 0.995500 -0.094600 0.000000
vn -0.689200 -0.724500 0.000000
vn 0.967400 0.253200 0.000000
usemtl TorchIcon
s off
f 17//1 10//1 9//1
f 8//1 7//1 5//1
f 1//1 4//1 3//1
f 10//1 12//1 11//1
f 12//1 14//1 13//1
f 16//1 15//1 20//1
f 19//1 20//1 13//1
f 38//2 29//2 30//2
f 25//2 27//2 28//2
f 23//2 24//2 21//2
f 29//2 31//2 32//2
f 32//2 31//2 33//2
f 40//2 35//2 36//2
f 33//2 40//2 39//2
f 20//3 40//3 33//3
f 13//4 33//4 31//4
f 4//5 1//5 21//5
f 3//6 23//6 22//6
f 10//7 30//7 32//7
f 19//8 39//8 36//8
f 9//9 29//9 38//9
f 15//10 35//10 40//10
f 6//11 26//11 28//11
f 15//12 16//12 36//12
f 5//13 25//13 26//13
f 12//14 32//14 34//14
f 4//12 24//12 23//12
f 11//15 31//15 29//15
f 18//13 38//13 37//13
f 2//13 22//13 21//13
f 17//16 37//16 30//16
f 7//17 27//17 25//17
f 8//12 28//12 27//12
f 14//18 34//18 39//18
f 18//1 17//1 9//1
f 6//1 8//1 5//1
f 2//1 1//1 3//1
f 9//1 10//1 11//1
f 11//1 12//1 13//1
f 19//1 16//1 20//1
f 14//1 19//1 13//1
f 37//2 38//2 30//2
f 26//2 25//2 28//2
f 22//2 23//2 21//2
f 30//2 29//2 32//2
f 34//2 32//2 33//2
f 39//2 40//2 36//2
f 34//2 33//2 39//2
f 13//3 20//3 33//3
f 11//4 13//4 31//4
f 24//5 4//5 21//5
f 2//6 3//6 22//6
f 12//7 10//7 32//7
f 16//8 19//8 36//8
f 18//9 9//9 38//9
f 20//10 15//10 40//10
f 8//11 6//11 28//11
f 35//12 15//12 36//12
f 6//13 5//13 26//13
f 14//14 12//14 34//14
f 3//12 4//12 23//12
f 9//15 11//15 29//15
f 17//13 18//13 37//13
f 1//13 2//13 21//13
f 10//16 17//16 30//16
f 5//17 7//17 25//17
f 7//12 8//12 27//12
f 19//18 14//18 39//18
