# Blender v2.74 (sub 0) OBJ File: 'scene1.blend'
# www.blender.org
mtllib torch.mtl
o Torch_Cylinder.006
v -0.000000 0.115932 -0.138406
v 0.000000 2.511747 -0.390704
v 0.069203 0.115932 -0.119863
v 0.195352 2.511747 -0.338359
v 0.119863 0.115932 -0.069203
v 0.338359 2.511747 -0.195352
v 0.138406 0.115932 0.000000
v 0.390704 2.511747 0.000000
v 0.119863 0.115932 0.069203
v 0.338359 2.511747 0.195352
v 0.069203 0.115932 0.119863
v 0.195352 2.511747 0.338359
v 0.000000 0.115932 0.138406
v 0.000000 2.511747 0.390704
v -0.069203 0.115932 0.119863
v -0.195352 2.511747 0.338360
v -0.119863 0.115932 0.069203
v -0.338359 2.511747 0.195352
v -0.138406 0.115932 0.000000
v -0.390704 2.511747 0.000000
v -0.119863 0.115932 -0.069203
v -0.338360 2.511747 -0.195352
v -0.069203 0.115932 -0.119863
v -0.195352 2.511747 -0.338359
v 0.000000 0.009440 -0.227521
v 0.113760 0.009440 -0.197039
v 0.197039 0.009440 -0.113760
v 0.227521 0.009440 0.000000
v 0.197039 0.009440 0.113760
v 0.113760 0.009440 0.197039
v 0.000000 0.009440 0.227521
v -0.113760 0.009440 0.197039
v -0.197039 0.009440 0.113760
v -0.227521 0.009440 0.000000
v -0.197039 0.009440 -0.113760
v -0.113760 0.009440 -0.197039
v -0.000000 0.714886 -0.160460
v -0.000000 1.313839 -0.216854
v -0.000000 1.912793 -0.268046
v 0.134023 1.912793 -0.232134
v 0.108427 1.313839 -0.187801
v 0.080230 0.714886 -0.138963
v 0.232134 1.912793 -0.134023
v 0.187801 1.313839 -0.108427
v 0.138963 0.714886 -0.080230
v 0.268046 1.912793 0.000000
v 0.216854 1.313839 0.000000
v 0.160460 0.714886 0.000000
v 0.232134 1.912793 0.134023
v 0.187801 1.313839 0.108427
v 0.138963 0.714886 0.080230
v 0.134023 1.912793 0.232134
v 0.108427 1.313839 0.187801
v 0.080230 0.714886 0.138963
v 0.000000 1.912793 0.268046
v 0.000000 1.313839 0.216854
v 0.000000 0.714886 0.160460
v -0.134023 1.912793 0.232134
v -0.108427 1.313839 0.187801
v -0.080230 0.714886 0.138963
v -0.232134 1.912793 0.134023
v -0.187801 1.313839 0.108427
v -0.138963 0.714886 0.080230
v -0.268046 1.912793 0.000000
v -0.216854 1.313839 0.000000
v -0.160460 0.714886 0.000000
v -0.232134 1.912793 -0.134023
v -0.187801 1.313839 -0.108427
v -0.138963 0.714886 -0.080230
v -0.134023 1.912793 -0.232134
v -0.108427 1.313839 -0.187801
v -0.080230 0.714886 -0.138963
v 0.000000 2.642709 -0.465013
v 0.232507 2.642709 -0.402713
v 0.402713 2.642709 -0.232507
v 0.465013 2.642709 0.000000
v 0.402713 2.642709 0.232507
v 0.232507 2.642709 0.402713
v 0.000000 2.642709 0.465013
v -0.232506 2.642709 0.402713
v -0.402713 2.642709 0.232507
v -0.465013 2.642709 0.000000
v -0.402713 2.642709 -0.232506
v -0.232507 2.642709 -0.402713
v 0.000000 2.851429 -0.594774
v 0.297387 2.851429 -0.515090
v 0.515090 2.851429 -0.297387
v 0.594774 2.851429 -0.000000
v 0.515090 2.851429 0.297387
v 0.297387 2.851429 0.515090
v 0.000000 2.851429 0.594774
v -0.297387 2.851429 0.515090
v -0.515089 2.851429 0.297387
v -0.594774 2.851429 0.000000
v -0.515090 2.851429 -0.297387
v -0.297387 2.851429 -0.515089
v 0.000000 2.997417 -0.711873
v 0.355937 2.997417 -0.616500
v 0.616500 2.997417 -0.355937
v 0.711873 2.997417 -0.000000
v 0.616500 2.997417 0.355936
v 0.355937 2.997417 0.616500
v 0.000000 2.997417 0.711873
v -0.355936 2.997417 0.616500
v -0.616500 2.997417 0.355937
v -0.711873 2.997417 0.000000
v -0.616500 2.997417 -0.355936
v -0.355937 2.997417 -0.616500
v 0.000000 3.177470 -1.010471
v 0.505235 3.177470 -0.875093
v 0.875093 3.177470 -0.505235
v 1.010471 3.177470 -0.000000
v 0.875093 3.177470 0.505235
v 0.505235 3.177470 0.875093
v 0.000000 3.177470 1.010471
v -0.505235 3.177470 0.875093
v -0.875093 3.177470 0.505235
v -1.010471 3.177470 0.000000
v -0.875094 3.177470 -0.505235
v -0.505236 3.177470 -0.875093
vn 0.253900 -0.194000 -0.947600
vn 0.693700 -0.194000 -0.693700
vn 0.947600 -0.194000 -0.253900
vn 0.947600 -0.194000 0.253900
vn 0.693700 -0.194000 0.693700
vn 0.253900 -0.194000 0.947600
vn -0.253900 -0.194000 0.947600
vn -0.693700 -0.194000 0.693700
vn -0.947600 -0.194000 0.253900
vn -0.947600 -0.194000 -0.253900
vn -0.253900 -0.194000 -0.947600
vn -0.693700 -0.194000 -0.693700
vn -0.201300 0.628600 -0.751200
vn 0.000000 -1.000000 0.000000
vn -0.549900 0.628600 -0.549900
vn -0.751200 0.628600 -0.201300
vn -0.751200 0.628600 0.201300
vn -0.549900 0.628600 0.549900
vn -0.201300 0.628600 0.751200
vn 0.201300 0.628600 0.751200
vn 0.549900 0.628600 0.549900
vn 0.751200 0.628600 0.201300
vn 0.751200 0.628600 -0.201300
vn 0.549900 0.628600 -0.549900
vn 0.201300 0.628600 -0.751200
vn -0.706700 -0.035500 -0.706700
vn -0.704200 -0.090600 -0.704200
vn -0.704700 -0.082300 -0.704700
vn -0.258700 -0.035500 -0.965300
vn -0.257800 -0.090600 -0.962000
vn -0.257900 -0.082300 -0.962700
vn -0.965300 -0.035500 -0.258700
vn -0.962000 -0.090600 -0.257800
vn -0.962700 -0.082300 -0.257900
vn -0.965300 -0.035500 0.258700
vn -0.962000 -0.090600 0.257800
vn -0.962700 -0.082300 0.257900
vn -0.706700 -0.035500 0.706700
vn -0.704200 -0.090600 0.704200
vn -0.704700 -0.082300 0.704700
vn -0.258700 -0.035500 0.965300
vn -0.257800 -0.090600 0.962000
vn -0.257900 -0.082300 0.962700
vn 0.258700 -0.035500 0.965300
vn 0.257800 -0.090600 0.962000
vn 0.257900 -0.082300 0.962700
vn 0.706700 -0.035500 0.706700
vn 0.704200 -0.090600 0.704200
vn 0.704700 -0.082300 0.704700
vn 0.965300 -0.035500 0.258700
vn 0.962000 -0.090600 0.257800
vn 0.962700 -0.082300 0.257900
vn 0.965300 -0.035500 -0.258700
vn 0.962000 -0.090600 -0.257800
vn 0.962700 -0.082300 -0.257900
vn 0.706700 -0.035500 -0.706700
vn 0.704200 -0.090600 -0.704200
vn 0.704700 -0.082300 -0.704700
vn 0.258700 -0.035500 -0.965300
vn 0.257800 -0.090600 -0.962000
vn 0.257900 -0.082300 -0.962700
vn -0.221900 -0.514800 -0.828100
vn -0.606200 -0.514800 -0.606200
vn -0.828100 -0.514800 -0.221900
vn -0.828100 -0.514800 0.221900
vn -0.606200 -0.514800 0.606200
vn -0.221900 -0.514800 0.828100
vn 0.221900 -0.514800 0.828100
vn 0.606200 -0.514800 0.606200
vn 0.828100 -0.514800 0.221900
vn 0.828100 -0.514800 -0.221900
vn 0.606200 -0.514800 -0.606200
vn 0.221900 -0.514800 -0.828100
vn -0.137100 -0.848300 -0.511500
vn -0.374400 -0.848300 -0.374400
vn -0.511500 -0.848300 -0.137100
vn -0.511500 -0.848300 0.137100
vn -0.374400 -0.848300 0.374400
vn -0.137100 -0.848300 0.511500
vn 0.137100 -0.848300 0.511500
vn 0.374400 -0.848300 0.374400
vn 0.511500 -0.848300 0.137100
vn 0.511500 -0.848300 -0.137100
vn 0.374400 -0.848300 -0.374400
vn 0.137100 -0.848300 -0.511500
g Torch_Cylinder.006_Metal
usemtl Metal
s off
f 39//1 2//1 4//1
f 40//2 4//2 6//2
f 43//3 6//3 8//3
f 8//4 10//4 49//4
f 10//5 12//5 52//5
f 52//6 12//6 14//6
f 14//7 16//7 58//7
f 58//8 16//8 18//8
f 18//9 20//9 64//9
f 20//10 22//10 67//10
f 24//11 2//11 39//11
f 22//12 24//12 70//12
f 1//13 25//13 36//13
f 25//14 29//14 33//14
f 21//15 23//15 36//15
f 21//16 35//16 34//16
f 19//17 34//17 33//17
f 17//18 33//18 32//18
f 15//19 32//19 31//19
f 13//20 31//20 30//20
f 9//21 11//21 30//21
f 9//22 29//22 28//22
f 5//23 7//23 28//23
f 5//24 27//24 26//24
f 3//25 26//25 25//25
f 69//26 72//26 23//26
f 68//27 71//27 72//27
f 67//28 70//28 71//28
f 72//29 37//29 1//29
f 71//30 38//30 37//30
f 71//31 70//31 39//31
f 66//32 69//32 21//32
f 65//33 68//33 69//33
f 64//34 67//34 68//34
f 63//35 66//35 19//35
f 63//36 62//36 65//36
f 61//37 64//37 65//37
f 60//38 63//38 17//38
f 59//39 62//39 63//39
f 59//40 58//40 61//40
f 57//41 60//41 15//41
f 56//42 59//42 60//42
f 55//43 58//43 59//43
f 54//44 57//44 13//44
f 53//45 56//45 57//45
f 53//46 52//46 55//46
f 51//47 54//47 11//47
f 50//48 53//48 54//48
f 49//49 52//49 53//49
f 7//50 48//50 51//50
f 47//51 50//51 51//51
f 46//52 49//52 50//52
f 45//53 48//53 7//53
f 45//54 44//54 47//54
f 44//55 43//55 46//55
f 42//56 45//56 5//56
f 42//57 41//57 44//57
f 41//58 40//58 43//58
f 37//59 42//59 3//59
f 38//60 41//60 42//60
f 39//61 40//61 41//61
f 73//62 84//62 96//62
f 83//63 95//63 96//63
f 82//64 94//64 95//64
f 82//65 81//65 93//65
f 80//66 92//66 93//66
f 80//67 79//67 91//67
f 79//68 78//68 90//68
f 78//69 77//69 89//69
f 76//70 88//70 89//70
f 75//71 87//71 88//71
f 74//72 86//72 87//72
f 73//73 85//73 86//73
f 97//74 108//74 120//74
f 107//75 119//75 120//75
f 106//76 118//76 119//76
f 105//77 117//77 118//77
f 105//78 104//78 116//78
f 104//79 103//79 115//79
f 102//80 114//80 115//80
f 102//81 101//81 113//81
f 100//82 112//82 113//82
f 99//83 111//83 112//83
f 99//84 98//84 110//84
f 98//85 97//85 109//85
f 40//1 39//1 4//1
f 43//2 40//2 6//2
f 46//3 43//3 8//3
f 46//4 8//4 49//4
f 49//5 10//5 52//5
f 55//6 52//6 14//6
f 55//7 14//7 58//7
f 61//8 58//8 18//8
f 61//9 18//9 64//9
f 64//10 20//10 67//10
f 70//11 24//11 39//11
f 67//12 22//12 70//12
f 23//13 1//13 36//13
f 35//14 36//14 25//14
f 33//14 34//14 35//14
f 31//14 32//14 33//14
f 33//14 30//14 31//14
f 27//14 28//14 29//14
f 29//14 26//14 27//14
f 33//14 35//14 25//14
f 29//14 30//14 33//14
f 25//14 26//14 29//14
f 35//15 21//15 36//15
f 19//16 21//16 34//16
f 17//17 19//17 33//17
f 15//18 17//18 32//18
f 13//19 15//19 31//19
f 11//20 13//20 30//20
f 29//21 9//21 30//21
f 7//22 9//22 28//22
f 27//23 5//23 28//23
f 3//24 5//24 26//24
f 1//25 3//25 25//25
f 21//26 69//26 23//26
f 69//27 68//27 72//27
f 68//28 67//28 71//28
f 23//29 72//29 1//29
f 72//30 71//30 37//30
f 38//31 71//31 39//31
f 19//32 66//32 21//32
f 66//33 65//33 69//33
f 65//34 64//34 68//34
f 17//35 63//35 19//35
f 66//36 63//36 65//36
f 62//37 61//37 65//37
f 15//38 60//38 17//38
f 60//39 59//39 63//39
f 62//40 59//40 61//40
f 13//41 57//41 15//41
f 57//42 56//42 60//42
f 56//43 55//43 59//43
f 11//44 54//44 13//44
f 54//45 53//45 57//45
f 56//46 53//46 55//46
f 9//47 51//47 11//47
f 51//48 50//48 54//48
f 50//49 49//49 53//49
f 9//50 7//50 51//50
f 48//51 47//51 51//51
f 47//52 46//52 50//52
f 5//53 45//53 7//53
f 48//54 45//54 47//54
f 47//55 44//55 46//55
f 3//56 42//56 5//56
f 45//57 42//57 44//57
f 44//58 41//58 43//58
f 1//59 37//59 3//59
f 37//60 38//60 42//60
f 38//61 39//61 41//61
f 85//62 73//62 96//62
f 84//63 83//63 96//63
f 83//64 82//64 95//64
f 94//65 82//65 93//65
f 81//66 80//66 93//66
f 92//67 80//67 91//67
f 91//68 79//68 90//68
f 90//69 78//69 89//69
f 77//70 76//70 89//70
f 76//71 75//71 88//71
f 75//72 74//72 87//72
f 74//73 73//73 86//73
f 109//74 97//74 120//74
f 108//75 107//75 120//75
f 107//76 106//76 119//76
f 106//77 105//77 118//77
f 117//78 105//78 116//78
f 116//79 104//79 115//79
f 103//80 102//80 115//80
f 114//81 102//81 113//81
f 101//82 100//82 113//82
f 100//83 99//83 112//83
f 111//84 99//84 110//84
f 110//85 98//85 109//85
