# Blender v2.74 (sub 0) OBJ File: 'scene1.blend'
# www.blender.org
mtllib victory.mtl
o Victory_Cube.001
v -29.463806 -18.667625 -0.000008
v 81.360275 76.754906 -0.000008
v 112.832954 38.920715 -0.000010
v -29.798622 -81.947845 -0.000009
v -100.444786 -17.663189 -0.000004
v -69.306900 15.818413 -0.000006
v -29.463806 -18.667625 6.361495
v 81.360275 76.754906 6.361495
v 112.832954 38.920715 6.361494
v -29.798622 -81.947845 6.361495
v -100.444786 -17.663189 6.361499
v -69.306900 15.818413 6.361497
vn 0.000000 0.000000 1.000000
vn -0.000000 0.000000 -1.000000
vn -0.654400 -0.756100 0.000000
vn 0.732300 -0.681000 0.000000
vn 0.673000 0.739600 0.000000
vn -0.646500 0.762900 0.000000
vn -0.768800 -0.639500 0.000000
vn 0.652500 -0.757800 0.000000
usemtl Victory
s off
f 1//1 6//1 5//1
f 9//2 10//2 7//2
f 1//3 7//3 12//3
f 6//4 12//4 11//4
f 5//5 11//5 10//5
f 4//6 10//6 9//6
f 2//7 3//7 9//7
f 2//8 8//8 7//8
f 1//1 3//1 2//1
f 1//1 5//1 4//1
f 4//1 3//1 1//1
f 11//2 12//2 7//2
f 7//2 8//2 9//2
f 10//2 11//2 7//2
f 6//3 1//3 12//3
f 5//4 6//4 11//4
f 4//5 5//5 10//5
f 3//6 4//6 9//6
f 8//7 2//7 9//7
f 1//8 2//8 7//8
